<svg xmlns="http://www.w3.org/2000/svg" viewBox="0 0 600 400" fill="none">
  <defs>
    <linearGradient id="solGrad" x1="0" y1="0" x2="0" y2="1">
      <stop offset="0%" stop-color="#9945ff" stop-opacity="0.2"/>
      <stop offset="100%" stop-color="#9945ff" stop-opacity="0"/>
    </linearGradient>
    <filter id="solGlow">
      <feGaussianBlur stdDeviation="3" result="blur"/>
      <feMerge><feMergeNode in="blur"/><feMergeNode in="SourceGraphic"/></feMerge>
    </filter>
  </defs>
  <rect width="600" height="400" rx="24" fill="#fff" fill-opacity="0.6"/>
  <rect x="1" y="1" width="598" height="398" rx="23" fill="none" stroke="#000" stroke-opacity="0.06"/>
  <!-- Grid -->
  <g stroke="#000" stroke-opacity="0.04" stroke-width="1">
    <line x1="60" y1="60" x2="560" y2="60"/>
    <line x1="60" y1="120" x2="560" y2="120"/>
    <line x1="60" y1="180" x2="560" y2="180"/>
    <line x1="60" y1="240" x2="560" y2="240"/>
    <line x1="60" y1="300" x2="560" y2="300"/>
  </g>
  <!-- Price labels -->
  <g fill="#999" font-family="Inter,sans-serif" font-size="10">
    <text x="30" y="64">248</text>
    <text x="30" y="124">232</text>
    <text x="30" y="184">216</text>
    <text x="30" y="244">200</text>
    <text x="30" y="304">184</text>
  </g>
  <!-- Candlesticks -->
  <g>
    <!-- Purple/up candles -->
    <line x1="100" y1="250" x2="100" y2="160" stroke="#9945ff" stroke-width="1.5"/>
    <rect x="94" y="180" width="12" height="50" rx="2" fill="#9945ff"/>

    <line x1="140" y1="220" x2="140" y2="140" stroke="#9945ff" stroke-width="1.5"/>
    <rect x="134" y="155" width="12" height="45" rx="2" fill="#9945ff"/>

    <line x1="260" y1="160" x2="260" y2="80" stroke="#9945ff" stroke-width="1.5"/>
    <rect x="254" y="95" width="12" height="42" rx="2" fill="#9945ff"/>

    <line x1="340" y1="140" x2="340" y2="60" stroke="#9945ff" stroke-width="1.5"/>
    <rect x="334" y="75" width="12" height="40" rx="2" fill="#9945ff"/>

    <line x1="420" y1="120" x2="420" y2="50" stroke="#9945ff" stroke-width="1.5"/>
    <rect x="414" y="60" width="12" height="38" rx="2" fill="#9945ff"/>

    <line x1="500" y1="100" x2="500" y2="35" stroke="#9945ff" stroke-width="1.5"/>
    <rect x="494" y="45" width="12" height="35" rx="2" fill="#9945ff"/>

    <!-- Red candles -->
    <line x1="180" y1="230" x2="180" y2="150" stroke="#ff4d4d" stroke-width="1.5"/>
    <rect x="174" y="165" width="12" height="42" rx="2" fill="#ff4d4d"/>

    <line x1="220" y1="200" x2="220" y2="110" stroke="#ff4d4d" stroke-width="1.5"/>
    <rect x="214" y="125" width="12" height="50" rx="2" fill="#ff4d4d"/>

    <line x1="300" y1="170" x2="300" y2="90" stroke="#ff4d4d" stroke-width="1.5"/>
    <rect x="294" y="100" width="12" height="45" rx="2" fill="#ff4d4d"/>

    <line x1="380" y1="145" x2="380" y2="65" stroke="#ff4d4d" stroke-width="1.5"/>
    <rect x="374" y="78" width="12" height="40" rx="2" fill="#ff4d4d"/>

    <line x1="460" y1="115" x2="460" y2="40" stroke="#ff4d4d" stroke-width="1.5"/>
    <rect x="454" y="50" width="12" height="42" rx="2" fill="#ff4d4d"/>

    <line x1="540" y1="90" x2="540" y2="30" stroke="#ff4d4d" stroke-width="1.5"/>
    <rect x="534" y="38" width="12" height="32" rx="2" fill="#ff4d4d"/>
  </g>
  <!-- Area fill -->
  <path d="M94,205 L134,175 L174,185 L214,150 L254,115 L294,122 L334,92 L374,98 L414,76 L454,68 L494,58 L534,48 L560,48 L560,340 L60,340 Z" fill="url(#solGrad)"/>
  <!-- Trend line -->
  <polyline points="94,205 134,175 174,185 214,150 254,115 294,122 334,92 374,98 414,76 454,68 494,58 534,48" fill="none" stroke="#9945ff" stroke-width="2.5" filter="url(#solGlow)"/>
  <!-- Current price dot -->
  <circle cx="534" cy="48" r="5" fill="#9945ff" filter="url(#solGlow)"/>
  <circle cx="534" cy="48" r="8" fill="none" stroke="#9945ff" stroke-opacity="0.3" stroke-width="2"/>
  <!-- Bottom bar -->
  <rect x="60" y="340" width="500" height="40" rx="0" fill="#f3f4f6"/>
  <g fill="#999" font-family="Inter,sans-serif" font-size="10">
    <text x="80" y="365">SOL/cNGN</text>
    <text x="200" y="365" fill="#9945ff">+11.27%</text>
    <text x="300" y="365">Vol: ₦960M</text>
    <text x="430" y="365">24h High: ₦248</text>
  </g>
</svg>